name analog
datacolumns 19
datarows 32
range 0.0 0.0155
endheader
time	ground_force_vx	ground_force_vy	ground_force_vz	ground_force_px	ground_force_py	ground_force_pz	l_ground_force_vx	l_ground_force_vy	l_ground_force_vz	l_ground_force_px	l_ground_force_py	l_ground_force_pz	ground_torque_x	ground_torque_y	ground_torque_z	l_ground_torque_x	l_ground_torque_y	l_ground_torque_z
0.0	-0.0	-0.0	-0.0	2.3308205604553223	12.87123203277588	-376.4352111816406	-2.52105712890625	-19.10254669189453	-351.1474609375	-0.0	-0.0	-0.0	-0.0	-0.0	-0.0	96502.765625	8343.095703125	-4315.9443359375
0.0005	-0.0	-0.0	-0.0	1.834411382675171	12.976778984069824	-375.9929504394531	-2.6228818893432617	-19.505844116210938	-354.7904357910156	-0.0	-0.0	-0.0	-0.0	-0.0	-0.0	97384.78125	8213.2939453125	-4312.060546875
0.001	-0.0	-0.0	-0.0	1.976656556129456	12.79572582244873	-371.89849853515625	-2.4839019775390625	-19.834030151367188	-357.3865661621094	-0.0	-0.0	-0.0	-0.0	-0.0	-0.0	98037.375	8337.8818359375	-4269.44873046875
0.0015	-0.0	-0.0	-0.0	1.898457169532776	12.453242301940918	-368.5774536132813	-2.092415332794189	-20.41383171081543	-358.874755859375	-0.0	-0.0	-0.0	-0.0	-0.0	-0.0	98578.5	8310.521484375	-4252.5009765625
0.002	-0.0	-0.0	-0.0	2.24448037147522	12.225069999694824	-366.6997375488281	-2.306480407714844	-20.17363548278809	-362.2136840820313	-0.0	-0.0	-0.0	-0.0	-0.0	-0.0	99369.703125	8333.7763671875	-4181.0234375
0.0025	-0.0	-0.0	-0.0	2.423017978668213	11.287715911865234	-363.3800964355469	-2.386394023895264	-20.57895278930664	-365.31097412109375	-0.0	-0.0	-0.0	-0.0	-0.0	-0.0	100501.53125	8288.4638671875	-4138.5830078125
0.003	-0.0	-0.0	-0.0	1.7304762601852417	10.42825698852539	-358.9295349121094	-1.760408878326416	-21.144853591918945	-369.34808349609375	-0.0	-0.0	-0.0	-0.0	-0.0	-0.0	101249.8359375	8080.67626953125	-4109.49365234375
0.0035	-0.0	-0.0	-0.0	1.8879355192184448	10.42825698852539	-358.2393798828125	-1.7243568897247314	-22.23224449157715	-371.9446105957031	-0.0	-0.0	-0.0	-0.0	-0.0	-0.0	101943.078125	8408.6201171875	-4031.871337890625
0.004	-0.0	-0.0	-0.0	1.4624563455581665	10.160865783691406	-356.8275756835937	-1.4940447807312012	-22.7374324798584	-375.4786682128906	-0.0	-0.0	-0.0	-0.0	-0.0	-0.0	102794.6328125	8240.5693359375	-4087.457763671875
0.0045000000000000005	-0.0	-0.0	-0.0	1.6655840873718262	10.363938331604004	-354.1593322753906	-1.280922293663025	-23.22860336303711	-378.1312255859375	-0.0	-0.0	-0.0	-0.0	-0.0	-0.0	103578.8671875	8385.7080078125	-4037.52001953125
0.005	-0.0	-0.0	-0.0	1.8734207153320312	10.061773300170898	-350.1389465332031	-1.4584211111068726	-23.645488739013672	-380.84088134765625	-0.0	-0.0	-0.0	-0.0	-0.0	-0.0	104044.875	8334.716796875	-4028.294921875
0.0055	-0.0	-0.0	-0.0	2.33441424369812	9.992411613464355	-347.94140625	-1.178032636642456	-24.475521087646484	-383.2709045410156	-0.0	-0.0	-0.0	-0.0	-0.0	-0.0	104594.2734375	8334.5810546875	-4019.990478515625
0.006	-0.0	-0.0	-0.0	2.09158992767334	10.160865783691406	-343.4867248535156	-0.9510514736175536	-24.73007202148437	-384.7491455078125	-0.0	-0.0	-0.0	-0.0	-0.0	-0.0	105174.4296875	8356.97265625	-3901.22900390625
0.006500000000000001	-0.0	-0.0	-0.0	2.1561858654022217	10.339126586914062	-343.1773986816406	-0.6806360483169556	-25.598827362060547	-387.9646301269531	-0.0	-0.0	-0.0	-0.0	-0.0	-0.0	105932.515625	8295.6220703125	-3952.303466796875
0.007	-0.0	-0.0	-0.0	1.9626312255859373	10.071735382080078	-339.5035400390625	-0.7343761920928955	-25.912839889526367	-389.8475646972656	-0.0	-0.0	-0.0	-0.0	-0.0	-0.0	106526.9921875	8283.4775390625	-3842.021240234375
0.0075	-0.0	-0.0	-0.0	1.8519724607467647	9.733722686767578	-338.2730407714844	-0.8871078491210938	-26.53091812133789	-392.8536071777344	-0.0	-0.0	-0.0	-0.0	-0.0	-0.0	106948.46875	8479.2060546875	-3838.961669921875
0.008	-0.0	-0.0	-0.0	2.230262756347656	10.311711311340332	-334.91192626953125	-0.5568909049034119	-27.090238571166992	-393.843017578125	-0.0	-0.0	-0.0	-0.0	-0.0	-0.0	107291.8203125	8436.31640625	-3664.188720703125
0.0085	-0.0	-0.0	-0.0	1.6818643808364868	9.893474578857422	-334.3998107910156	-0.5867484211921692	-27.58084487915039	-396.0137939453125	-0.0	-0.0	-0.0	-0.0	-0.0	-0.0	107584.5234375	8645.3857421875	-3672.543212890625
0.009000000000000001	-0.0	-0.0	-0.0	1.897932291030884	9.998266220092772	-333.0757751464844	-0.3397791683673858	-28.071298599243164	-396.8294677734375	-0.0	-0.0	-0.0	-0.0	-0.0	-0.0	108115.015625	8617.2255859375	-3657.9140625
0.0095	-0.0	-0.0	-0.0	1.9468916654586792	10.056010246276855	-330.41717529296875	-0.3303194940090179	-28.50348854064941	-397.5871887207031	-0.0	-0.0	-0.0	-0.0	-0.0	-0.0	108351.53125	8643.9677734375	-3618.287109375
0.01	-0.0	-0.0	-0.0	1.9712265729904173	9.6174955368042	-329.38604736328125	-0.2998466491699219	-28.81724739074707	-399.8149108886719	-0.0	-0.0	-0.0	-0.0	-0.0	-0.0	108789.1640625	8656.2978515625	-3639.834716796875
0.0105	-0.0	-0.0	-0.0	1.5090460777282717	9.391515731811523	-329.4536437988281	-0.5476363301277161	-29.37774658203125	-400.8617858886719	-0.0	-0.0	-0.0	-0.0	-0.0	-0.0	108977.9453125	8691.10546875	-3669.84326171875
0.011	-0.0	-0.0	-0.0	1.9626312255859373	9.099631309509276	-327.5909118652344	-0.308496743440628	-29.733646392822266	-401.6813049316406	-0.0	-0.0	-0.0	-0.0	-0.0	-0.0	108866.109375	8694.4580078125	-3631.950439453125
0.0115	-0.0	-0.0	-0.0	1.970813274383545	9.058998107910156	-325.85711669921875	-0.6609222292900085	-30.27884101867676	-402.1614074707031	-0.0	-0.0	-0.0	-0.0	-0.0	-0.0	108955.96875	8480.1630859375	-3554.48779296875
0.012	-0.0	-0.0	-0.0	2.133025646209717	9.115588188171388	-326.4027404785156	-0.5966320633888245	-30.351436614990234	-402.7293395996094	-0.0	-0.0	-0.0	-0.0	-0.0	-0.0	109086.0078125	8885.234375	-3656.810302734375
0.0125	-0.0	-0.0	-0.0	1.881346106529236	9.342855453491213	-325.40625	-0.9114304184913636	-30.91259002685547	-402.7914733886719	-0.0	-0.0	-0.0	-0.0	-0.0	-0.0	108841.375	8777.744140625	-3541.3896484375
0.013000000000000001	-0.0	-0.0	-0.0	2.2874581813812256	8.848133087158203	-326.2730407714844	-0.7983970642089844	-31.000911712646484	-400.6680908203125	-0.0	-0.0	-0.0	-0.0	-0.0	-0.0	108418.8203125	8989.8203125	-3708.326904296875
0.0135	-0.0	-0.0	-0.0	1.5573766231536863	9.295106887817385	-326.3684387207031	-1.145535945892334	-31.274110794067383	-399.2711791992188	-0.0	-0.0	-0.0	-0.0	-0.0	-0.0	108456.7109375	9245.181640625	-3784.19873046875
0.014	-0.0	-0.0	-0.0	1.1113746166229248	8.53986644744873	-327.59576416015625	-1.87109649181366	-31.17755508422852	-398.4773254394531	-0.0	-0.0	-0.0	-0.0	-0.0	-0.0	108018.765625	9474.46484375	-3835.9111328125
0.0145	-0.0	-0.0	-0.0	1.7600680589675903	8.953929901123047	-327.52252197265625	-2.3226466178894043	-31.233821868896484	-396.9217529296875	-0.0	-0.0	-0.0	-0.0	-0.0	-0.0	107498.84375	9491.517578125	-3876.6767578125
0.015	-0.0	-0.0	-0.0	1.7673096656799316	9.163545608520508	-329.51690673828125	-2.322762489318848	-31.04115867614746	-395.9070129394531	-0.0	-0.0	-0.0	-0.0	-0.0	-0.0	106893.4140625	9649.697265625	-4081.5830078125
0.0155	-0.0	-0.0	-0.0	1.2800768613815308	9.228524208068848	-331.1875	-2.7654757499694824	-30.80026626586914	-392.9853515625	-0.0	-0.0	-0.0	-0.0	-0.0	-0.0	106271.7734375	9778.005859375	-4068.283447265625
